<svg xmlns="http://www.w3.org/2000/svg" viewBox="0 0 512 512">
  <defs>
    <linearGradient id="planeBody" x1="256" y1="72" x2="256" y2="448" gradientUnits="userSpaceOnUse">
      <stop offset="0%" stop-color="#B8C6D8"/>
      <stop offset="32%" stop-color="#8FA0B8"/>
      <stop offset="68%" stop-color="#6B7F99"/>
      <stop offset="100%" stop-color="#5A6D85"/>
    </linearGradient>
    <linearGradient id="planeSkyTint" x1="120" y1="96" x2="392" y2="248" gradientUnits="userSpaceOnUse">
      <stop offset="0%" stop-color="#BAE6FD" stop-opacity="0.42"/>
      <stop offset="55%" stop-color="#7DD3FC" stop-opacity="0.16"/>
      <stop offset="100%" stop-color="#38BDF8" stop-opacity="0"/>
    </linearGradient>
    <linearGradient id="planeSheen" x1="96" y1="88" x2="360" y2="300" gradientUnits="userSpaceOnUse">
      <stop offset="0%" stop-color="#FFFFFF" stop-opacity="0.52"/>
      <stop offset="42%" stop-color="#F8FAFC" stop-opacity="0.14"/>
      <stop offset="100%" stop-color="#FFFFFF" stop-opacity="0"/>
    </linearGradient>
    <linearGradient id="planeUnderside" x1="256" y1="280" x2="256" y2="460" gradientUnits="userSpaceOnUse">
      <stop offset="0%" stop-color="#475569" stop-opacity="0"/>
      <stop offset="100%" stop-color="#334155" stop-opacity="0.22"/>
    </linearGradient>
    <filter id="planeShadow" x="-12%" y="-10%" width="124%" height="135%">
      <feDropShadow dx="0" dy="2.5" stdDeviation="3.2" flood-color="#64748B" flood-opacity="0.34"/>
    </filter>
  </defs>

  <!-- 바닥 그림자 -->
  <path
    fill="#64748B"
    fill-opacity="0.16"
    transform="translate(5 7) scale(0.985)"
    d="M160.4 86c-4.6 1.4-10 7.9-10.9 12.9-.6 3.8 1.2 8.7 21.3 59.1l22 55-44.6-.2-44.6-.3-15.1-48.2c-8.4-26.5-16-49.4-16.9-50.8s-3.1-3.5-4.9-4.5c-2.9-1.8-5.1-2-23.8-2-22.6 0-26.7.7-33 5.9-1.9 1.6-4.8 5.3-6.4 8.2l-3 5.4v63c0 68-.2 65.7 5.5 80.7 6.6 17.7 26.1 37.2 43.8 43.8 15 5.6 11.9 5.4 79.8 5.8l63.2.3-21.6 53.7c-23.2 57.9-23.6 59.4-19.6 66.3 1.1 1.9 3.8 4.4 6 5.6 3.7 2.1 5.1 2.3 24.1 2.3 32.2 0 46-3.9 64-18.2 8.8-6.9 12.3-11.7 46.8-63.5l30.8-46.3 84.6-.2 84.6-.3 5-2.6c6.2-3.2 12-10.6 13.6-17.2 1.3-5.7.6-17.3-1.6-26.3-.8-3.2-3.7-10.4-6.5-16-9.9-20.3-28.1-35-51.3-41.7-6.8-1.9-10.2-2.1-68-2.4l-60.8-.4-32.1-48.2c-20.4-30.6-34.3-50.5-38.2-54.6-10.2-10.6-21.2-17.2-36.3-21.7-8.1-2.4-10.5-2.7-30.8-3-12.5-.2-23.3.1-25.1.6"/>

  <!-- 본체 -->
  <g filter="url(#planeShadow)">
    <path
      fill="url(#planeBody)"
      d="M160.4 86c-4.6 1.4-10 7.9-10.9 12.9-.6 3.8 1.2 8.7 21.3 59.1l22 55-44.6-.2-44.6-.3-15.1-48.2c-8.4-26.5-16-49.4-16.9-50.8s-3.1-3.5-4.9-4.5c-2.9-1.8-5.1-2-23.8-2-22.6 0-26.7.7-33 5.9-1.9 1.6-4.8 5.3-6.4 8.2l-3 5.4v63c0 68-.2 65.7 5.5 80.7 6.6 17.7 26.1 37.2 43.8 43.8 15 5.6 11.9 5.4 79.8 5.8l63.2.3-21.6 53.7c-23.2 57.9-23.6 59.4-19.6 66.3 1.1 1.9 3.8 4.4 6 5.6 3.7 2.1 5.1 2.3 24.1 2.3 32.2 0 46-3.9 64-18.2 8.8-6.9 12.3-11.7 46.8-63.5l30.8-46.3 84.6-.2 84.6-.3 5-2.6c6.2-3.2 12-10.6 13.6-17.2 1.3-5.7.6-17.3-1.6-26.3-.8-3.2-3.7-10.4-6.5-16-9.9-20.3-28.1-35-51.3-41.7-6.8-1.9-10.2-2.1-68-2.4l-60.8-.4-32.1-48.2c-20.4-30.6-34.3-50.5-38.2-54.6-10.2-10.6-21.2-17.2-36.3-21.7-8.1-2.4-10.5-2.7-30.8-3-12.5-.2-23.3.1-25.1.6"/>
  </g>

  <!-- 스카이 블루 틴트 -->
  <path
    fill="url(#planeSkyTint)"
    d="M160.4 86c-4.6 1.4-10 7.9-10.9 12.9-.6 3.8 1.2 8.7 21.3 59.1l22 55-44.6-.2-44.6-.3-15.1-48.2c-8.4-26.5-16-49.4-16.9-50.8s-3.1-3.5-4.9-4.5c-2.9-1.8-5.1-2-23.8-2-22.6 0-26.7.7-33 5.9-1.9 1.6-4.8 5.3-6.4 8.2l-3 5.4v63c0 68-.2 65.7 5.5 80.7 6.6 17.7 26.1 37.2 43.8 43.8 15 5.6 11.9 5.4 79.8 5.8l63.2.3-21.6 53.7c-23.2 57.9-23.6 59.4-19.6 66.3 1.1 1.9 3.8 4.4 6 5.6 3.7 2.1 5.1 2.3 24.1 2.3 32.2 0 46-3.9 64-18.2 8.8-6.9 12.3-11.7 46.8-63.5l30.8-46.3 84.6-.2 84.6-.3 5-2.6c6.2-3.2 12-10.6 13.6-17.2 1.3-5.7.6-17.3-1.6-26.3-.8-3.2-3.7-10.4-6.5-16-9.9-20.3-28.1-35-51.3-41.7-6.8-1.9-10.2-2.1-68-2.4l-60.8-.4-32.1-48.2c-20.4-30.6-34.3-50.5-38.2-54.6-10.2-10.6-21.2-17.2-36.3-21.7-8.1-2.4-10.5-2.7-30.8-3-12.5-.2-23.3.1-25.1.6"/>

  <!-- 상단 하이라이트 -->
  <path
    fill="url(#planeSheen)"
    d="M160.4 86c-4.6 1.4-10 7.9-10.9 12.9-.6 3.8 1.2 8.7 21.3 59.1l22 55-44.6-.2-44.6-.3-15.1-48.2c-8.4-26.5-16-49.4-16.9-50.8s-3.1-3.5-4.9-4.5c-2.9-1.8-5.1-2-23.8-2-22.6 0-26.7.7-33 5.9-1.9 1.6-4.8 5.3-6.4 8.2l-3 5.4v63c0 68-.2 65.7 5.5 80.7 6.6 17.7 26.1 37.2 43.8 43.8 15 5.6 11.9 5.4 79.8 5.8l63.2.3-21.6 53.7c-23.2 57.9-23.6 59.4-19.6 66.3 1.1 1.9 3.8 4.4 6 5.6 3.7 2.1 5.1 2.3 24.1 2.3 32.2 0 46-3.9 64-18.2 8.8-6.9 12.3-11.7 46.8-63.5l30.8-46.3 84.6-.2 84.6-.3 5-2.6c6.2-3.2 12-10.6 13.6-17.2 1.3-5.7.6-17.3-1.6-26.3-.8-3.2-3.7-10.4-6.5-16-9.9-20.3-28.1-35-51.3-41.7-6.8-1.9-10.2-2.1-68-2.4l-60.8-.4-32.1-48.2c-20.4-30.6-34.3-50.5-38.2-54.6-10.2-10.6-21.2-17.2-36.3-21.7-8.1-2.4-10.5-2.7-30.8-3-12.5-.2-23.3.1-25.1.6"/>

  <!-- 하부 깊이감 -->
  <path
    fill="url(#planeUnderside)"
    d="M160.4 86c-4.6 1.4-10 7.9-10.9 12.9-.6 3.8 1.2 8.7 21.3 59.1l22 55-44.6-.2-44.6-.3-15.1-48.2c-8.4-26.5-16-49.4-16.9-50.8s-3.1-3.5-4.9-4.5c-2.9-1.8-5.1-2-23.8-2-22.6 0-26.7.7-33 5.9-1.9 1.6-4.8 5.3-6.4 8.2l-3 5.4v63c0 68-.2 65.7 5.5 80.7 6.6 17.7 26.1 37.2 43.8 43.8 15 5.6 11.9 5.4 79.8 5.8l63.2.3-21.6 53.7c-23.2 57.9-23.6 59.4-19.6 66.3 1.1 1.9 3.8 4.4 6 5.6 3.7 2.1 5.1 2.3 24.1 2.3 32.2 0 46-3.9 64-18.2 8.8-6.9 12.3-11.7 46.8-63.5l30.8-46.3 84.6-.2 84.6-.3 5-2.6c6.2-3.2 12-10.6 13.6-17.2 1.3-5.7.6-17.3-1.6-26.3-.8-3.2-3.7-10.4-6.5-16-9.9-20.3-28.1-35-51.3-41.7-6.8-1.9-10.2-2.1-68-2.4l-60.8-.4-32.1-48.2c-20.4-30.6-34.3-50.5-38.2-54.6-10.2-10.6-21.2-17.2-36.3-21.7-8.1-2.4-10.5-2.7-30.8-3-12.5-.2-23.3.1-25.1.6"/>
</svg>
